<svg xmlns="http://www.w3.org/2000/svg" viewBox="-36.07 -74.33 223.47 223.47"><defs><linearGradient id="g" x1="0" y1="0" x2="0" y2="1"><stop offset="0.000" stop-color="#2a1813" stop-opacity="0"/><stop offset="0.000" stop-color="#2a1813" stop-opacity="0"/><stop offset="0.305" stop-color="#2a1813" stop-opacity="0.55"/><stop offset="0.610" stop-color="#2a1813" stop-opacity="0.97"/><stop offset="1.000" stop-color="#2a1813" stop-opacity="1"/></linearGradient><linearGradient id="vg" gradientUnits="userSpaceOnUse" x1="0" y1="68.0" x2="0" y2="96.0"><stop offset="0" stop-color="#fff"/><stop offset="1" stop-color="#000"/></linearGradient><linearGradient id="vgi" gradientUnits="userSpaceOnUse" x1="0" y1="68.0" x2="0" y2="96.0"><stop offset="0" stop-color="#000"/><stop offset="1" stop-color="#fff"/></linearGradient><clipPath id="fs"><path transform="rotate(0 72.1 138.20851063829787) translate(-536.780,-90.551) scale(8.6)" d="M79.2321 12.6961C79.4347 13.4689 78.572 14.293 78.572 14.293C78.572 14.293 76.9992 15.2958 77.306 10.993C77.6128 6.69032 70.5651 2.46143 70.5651 2.46143C70.5651 2.46143 70.6053 2.8716 70.5632 5.708C70.5102 9.27747 68.3808 8.05374 68.3808 8.05374C66.2492 10.253 66.443 15.2195 66.443 15.2195C63.8042 17.4671 63.7117 12.794 63.7117 12.794C63.7117 12.794 58.6875 17.6808 64.0605 22.9161C64.0605 22.9161 64.8484 23.6746 63.5892 23.4332C62.6912 23.2612 62.4883 22.9151 62.4883 22.9151C62.4883 22.9151 62.6597 25.0822 68.9953 26.4386C69.1182 26.4626 71.0873 26.836 73.3114 26.4086C78.192 25.3528 79.044 23.3911 79.044 23.3911C79.044 23.3911 78.9407 23.5682 78.1309 23.6473C77.2606 23.7323 78.0077 22.9241 78.0077 22.9241C83.742 19.4562 79.0296 11.9232 79.2321 12.6961Z"/></clipPath><mask id="fm" maskUnits="userSpaceOnUse" x="-100" y="-150" width="400" height="400"><rect x="-100" y="-150" width="400" height="400" fill="#fff"/><circle cx="72.1" cy="72.1" r="71.9" fill="url(#vg)"/></mask><mask id="fi" maskUnits="userSpaceOnUse" x="-100" y="-150" width="400" height="400"><g clip-path="url(#fs)"><circle cx="72.1" cy="72.1" r="71.9" fill="url(#vgi)"/></g></mask><mask id="nf" maskUnits="userSpaceOnUse" x="-100" y="-150" width="400" height="400"><rect x="-100" y="-150" width="400" height="400" fill="#fff"/><path transform="rotate(0 72.1 138.20851063829787) translate(-536.780,-90.551) scale(8.6)" d="M79.2321 12.6961C79.4347 13.4689 78.572 14.293 78.572 14.293C78.572 14.293 76.9992 15.2958 77.306 10.993C77.6128 6.69032 70.5651 2.46143 70.5651 2.46143C70.5651 2.46143 70.6053 2.8716 70.5632 5.708C70.5102 9.27747 68.3808 8.05374 68.3808 8.05374C66.2492 10.253 66.443 15.2195 66.443 15.2195C63.8042 17.4671 63.7117 12.794 63.7117 12.794C63.7117 12.794 58.6875 17.6808 64.0605 22.9161C64.0605 22.9161 64.8484 23.6746 63.5892 23.4332C62.6912 23.2612 62.4883 22.9151 62.4883 22.9151C62.4883 22.9151 62.6597 25.0822 68.9953 26.4386C69.1182 26.4626 71.0873 26.836 73.3114 26.4086C78.192 25.3528 79.044 23.3911 79.044 23.3911C79.044 23.3911 78.9407 23.5682 78.1309 23.6473C77.2606 23.7323 78.0077 22.9241 78.0077 22.9241C83.742 19.4562 79.0296 11.9232 79.2321 12.6961Z" fill="#000"/></mask><clipPath id="k"><path transform="rotate(0 72.1 138.20851063829787) translate(-536.780,-90.551) scale(8.6)" d="M79.2321 12.6961C79.4347 13.4689 78.572 14.293 78.572 14.293C78.572 14.293 76.9992 15.2958 77.306 10.993C77.6128 6.69032 70.5651 2.46143 70.5651 2.46143C70.5651 2.46143 70.6053 2.8716 70.5632 5.708C70.5102 9.27747 68.3808 8.05374 68.3808 8.05374C66.2492 10.253 66.443 15.2195 66.443 15.2195C63.8042 17.4671 63.7117 12.794 63.7117 12.794C63.7117 12.794 58.6875 17.6808 64.0605 22.9161C64.0605 22.9161 64.8484 23.6746 63.5892 23.4332C62.6912 23.2612 62.4883 22.9151 62.4883 22.9151C62.4883 22.9151 62.6597 25.0822 68.9953 26.4386C69.1182 26.4626 71.0873 26.836 73.3114 26.4086C78.192 25.3528 79.044 23.3911 79.044 23.3911C79.044 23.3911 78.9407 23.5682 78.1309 23.6473C77.2606 23.7323 78.0077 22.9241 78.0077 22.9241C83.742 19.4562 79.0296 11.9232 79.2321 12.6961Z"/><rect x="-50" y="88.0" width="250" height="200"/></clipPath><linearGradient id="og" x1="0" y1="1" x2="0" y2="0"><stop offset=".3" stop-color="#FF9C45"/><stop offset="1" stop-color="#FFD45A"/></linearGradient></defs><g mask="url(#fm)"><g opacity="0.85" transform="rotate(0 72.1 138.20851063829787) translate(-536.780,-90.551) scale(8.6)" ><path d="M79.2321 12.6961C79.4347 13.4689 78.572 14.293 78.572 14.293C78.572 14.293 76.9992 15.2958 77.306 10.993C77.6128 6.69032 70.5651 2.46143 70.5651 2.46143C70.5651 2.46143 70.6053 2.8716 70.5632 5.708C70.5102 9.27747 68.3808 8.05374 68.3808 8.05374C66.2492 10.253 66.443 15.2195 66.443 15.2195C63.8042 17.4671 63.7117 12.794 63.7117 12.794C63.7117 12.794 58.6875 17.6808 64.0605 22.9161C64.0605 22.9161 64.8484 23.6746 63.5892 23.4332C62.6912 23.2612 62.4883 22.9151 62.4883 22.9151C62.4883 22.9151 62.6597 25.0822 68.9953 26.4386C69.1182 26.4626 71.0873 26.836 73.3114 26.4086C78.192 25.3528 79.044 23.3911 79.044 23.3911C79.044 23.3911 78.9407 23.5682 78.1309 23.6473C77.2606 23.7323 78.0077 22.9241 78.0077 22.9241C83.742 19.4562 79.0296 11.9232 79.2321 12.6961Z" fill="#FF4C1F"/><path d="M77.1449 19.8332C78.2872 18.1103 77.4129 16.8261 77.4129 16.8261C75.6233 17.7119 75.0885 17.0924 74.9299 16.5903C74.8672 16.3915 74.8566 16.1804 74.893 15.9757C76.0545 9.43627 71.5631 5.90137 71.6754 6.77467C71.7095 7.03869 71.6623 7.38522 71.5792 7.74106C71.3829 8.58355 71.0078 9.37699 70.4966 10.0858C69.7926 11.0621 68.5203 13.1564 67.8277 16.307C66.8364 20.8171 63.9854 17.5515 63.9854 17.5515C63.9854 17.5515 62.3149 23.0489 69.122 26.4613C69.5229 26.5285 70.7915 26.7047 72.3209 26.5521C76.7936 24.5257 78.3996 20.5673 78.3996 20.5673C78.3996 20.5673 76.0026 21.556 77.1449 19.8332Z" fill="url(#og)"/><path d="M62.6954 12.1968C62.6954 12.1968 62.4336 9.97873 63.7164 8.99973C63.9168 8.84671 64.0519 8.72262 64.1507 8.49529C64.2313 8.31058 64.3562 8.01702 64.2955 7.79726C64.1439 7.24686 66.0057 10.2918 62.6954 12.1968Z" fill="#FF4C1F"/></g></g><g mask="url(#fi)"><circle cx="72.1" cy="72.1" r="72.1" fill="#FF4C1F" opacity="0.85"/></g><g clip-path="url(#k)"><g mask="url(#nf)"><circle cx="72.1" cy="72.1" r="72.1" fill="#FF4C1F" opacity="0.85"/></g></g><circle clip-path="url(#k)" cx="72.1" cy="72.1" r="72.1" fill="url(#g)" opacity="0.85"/><g opacity="1"><g transform="translate(72.100,72.100) scale(1) translate(-72.096,-72.097)"><circle cx="54.809" cy="72.097" r="29.822" fill="#fff100"/><path d="M108.4724274,61.3645834h-14.173172v21.4652977h14.173172c5.9274597,0,10.7326508-4.8051605,10.7326508-10.7326508c0-5.9274597-4.8051834-10.7326279-10.7326508-10.7326241Z" fill="#fff100"/></g></g></svg>